 <svg  version="1.0" xmlns="http://www.w3.org/2000/svg"  width="300.000000pt" height="300.000000pt" viewBox="0 0 300.000000 300.000000"  preserveAspectRatio="xMidYMid meet">  <g transform="translate(0.000000,300.000000) scale(0.100000,-0.100000)" fill="#e72323" stroke="none"> <path d="M1440 2930 c-267 -45 -459 -124 -648 -265 l-97 -73 -25 23 c-36 33 -64 45 -102 45 -40 0 -295 -112 -359 -158 -119 -86 -200 -266 -198 -441 0 -76 6 -77 26 -6 6 22 9 4 13 -75 7 -137 1 -161 -21 -90 l-17 55 -1 -75 c-4 -299 188 -844 423 -1205 50 -76 60 -86 83 -83 37 4 52 32 33 63 -8 13 -44 70 -78 127 -183 297 -324 676 -368 989 -22 154 -15 356 16 454 26 84 67 151 122 201 43 38 159 97 169 86 3 -4 66 -142 139 -307 73 -165 137 -305 142 -311 6 -8 -9 -19 -46 -33 -105 -43 -132 -99 -123 -255 9 -171 83 -379 196 -552 76 -117 132 -179 195 -214 64 -37 118 -39 187 -6 l50 25 14 -32 c10 -24 157 -350 271 -602 2 -6 -32 -23 -76 -39 -71 -25 -91 -28 -163 -24 -153 9 -261 70 -446 255 -68 68 -125 123 -128 123 -19 0 -43 -25 -43 -45 0 -65 250 -291 405 -365 175 -84 276 -81 489 11 80 35 103 40 191 45 244 12 455 74 650 189 341 201 577 531 655 915 21 105 27 236 10 225 -5 -3 -10 -15 -10 -25 0 -10 -4 -22 -10 -25 -6 -4 -10 34 -10 107 l1 113 19 -40 20 -40 -5 105 c-13 284 -171 621 -389 829 -63 60 -68 62 -89 48 -12 -8 -23 -22 -25 -31 -2 -10 30 -52 78 -104 136 -145 223 -290 285 -475 52 -156 68 -273 62 -457 -8 -217 -43 -356 -139 -545 -197 -389 -589 -654 -1033 -698 l-50 -5 0 51 c0 29 -3 62 -8 73 -7 20 -3 22 82 33 388 50 713 283 887 636 166 338 156 741 -29 1063 -65 115 -118 181 -213 272 -319 304 -764 395 -1189 244 -123 -44 -276 -138 -376 -231 l-45 -42 -32 72 -32 72 37 32 c119 103 310 210 458 256 144 45 270 60 444 54 234 -8 409 -59 608 -177 107 -63 121 -68 141 -48 28 28 13 55 -50 96 -135 87 -297 154 -467 193 -99 23 -372 34 -461 19z m434 -344 c316 -82 562 -284 701 -577 85 -180 117 -367 97 -556 -13 -116 -56 -272 -99 -358 -170 -337 -495 -562 -861 -594 l-85 -7 -24 55 c-107 245 -178 392 -196 409 -25 24 -69 42 -100 42 -12 0 -67 -21 -122 -46 -167 -77 -170 -78 -220 -54 -88 43 -225 247 -296 441 -66 182 -88 344 -52 388 10 12 74 46 142 77 137 60 157 74 177 121 23 53 17 81 -45 218 l-59 130 31 33 c133 141 387 268 603 302 103 16 297 5 408 -24z m-1400 -27 c-9 -10 -14 -25 -11 -33 10 -24 -4 -26 -34 -5 -33 23 -30 34 14 53 40 16 54 10 31 -15z m220 1 c9 0 26 5 37 10 16 9 15 5 -6 -26 -14 -20 -25 -43 -25 -51 0 -25 -21 -2 -41 44 -24 55 -24 60 -1 40 10 -10 26 -17 36 -17z m-86 -2 c5 -7 55 -114 110 -238 55 -124 109 -245 121 -270 30 -66 28 -96 -11 -120 -18 -11 -39 -19 -46 -18 -12 3 -297 627 -289 634 22 22 100 30 115 12z m-94 -150 c8 -33 7 -40 -4 -33 -6 4 -8 10 -5 15 3 5 1 11 -5 15 -12 8 -13 25 -1 25 5 0 11 -10 15 -22z m236 -34 c0 -15 42 -36 63 -31 7 1 12 -2 11 -8 -1 -19 -26 -75 -33 -75 -7 0 -41 63 -41 75 0 3 -7 21 -15 41 -13 32 -13 35 0 24 8 -7 15 -19 15 -26z m-115 -253 c3 -13 4 -26 0 -29 -3 -3 -5 1 -5 9 0 8 -9 32 -20 54 -20 39 -20 39 -1 15 11 -14 23 -36 26 -49z m126 -230 l31 -19 -25 -16 c-13 -9 -39 -21 -57 -26 l-33 -9 24 25 c21 23 22 27 11 67 -22 74 -23 83 -3 40 11 -24 34 -51 52 -62z m-47 -746 c9 -14 13 -25 8 -25 -5 0 -14 11 -20 25 -6 14 -10 25 -8 25 2 0 11 -11 20 -25z m500 -252 c-16 -27 -16 -32 -1 -62 9 -19 14 -38 10 -43 -3 -6 -12 5 -20 23 -8 19 -26 44 -41 56 l-27 21 45 21 c24 11 46 18 48 17 1 -2 -5 -17 -14 -33z m134 5 c6 -7 59 -121 117 -253 59 -132 116 -258 126 -281 24 -52 16 -76 -33 -103 -45 -24 -48 -24 -48 -12 0 5 -63 149 -140 321 -77 172 -139 314 -138 315 46 26 100 32 116 13z m-28 -315 c0 -32 -5 -28 -14 10 -4 19 -3 26 4 22 5 -3 10 -18 10 -32z m339 -123 c38 0 39 -6 5 -33 -26 -20 -28 -43 -9 -92 6 -14 1 -11 -15 8 -12 15 -20 30 -17 33 3 3 -4 22 -15 42 -11 20 -24 47 -29 60 l-9 23 29 -20 c16 -12 43 -21 60 -21z m-274 -20 c5 -17 4 -22 -3 -15 -5 6 -13 21 -17 35 -5 17 -4 22 3 15 5 -5 13 -21 17 -35z m295 -200 c22 -14 11 -17 -63 -23 -69 -4 -74 -2 -35 17 13 6 32 25 43 43 l20 30 10 -29 c6 -16 17 -33 25 -38z m-220 34 c0 -18 49 -63 70 -64 16 -2 -58 -39 -77 -40 -10 0 -10 6 -2 24 7 15 8 36 4 53 -13 46 -14 53 -4 47 5 -3 9 -12 9 -20z m-50 -123 c0 -12 -39 -21 -45 -11 -3 5 5 11 17 13 13 2 24 5 26 6 1 0 2 -3 2 -8z"/> <path d="M1534 2361 c-48 -22 -84 -68 -99 -129 -11 -41 -15 -45 -65 -63 -263 -93 -459 -368 -460 -646 0 -52 -3 -63 -19 -68 -11 -3 -34 -22 -50 -41 -26 -29 -31 -43 -31 -89 0 -43 5 -59 26 -85 53 -63 16 -60 781 -60 656 0 700 1 733 18 46 24 85 98 76 145 -9 48 -40 93 -75 108 -30 14 -31 15 -31 85 0 272 -215 561 -474 639 -35 11 -40 16 -51 59 -16 63 -42 96 -95 124 -54 27 -111 28 -166 3z m137 -81 c10 -6 26 -24 34 -40 l16 -30 -101 0 c-111 0 -120 7 -74 54 29 28 87 36 125 16z m-175 -125 c-44 -16 -61 -9 -43 19 7 11 17 27 21 35 7 10 14 7 31 -15 l23 -29 -32 -10z m278 23 l19 -31 -38 6 c-48 8 -52 13 -30 37 24 26 27 26 49 -12z m33 -83 c96 -31 167 -74 244 -150 106 -105 171 -243 185 -397 l7 -78 -626 0 -626 0 5 68 c14 155 68 283 167 389 168 179 411 243 644 168z m-813 -666 c-6 -10 -74 -13 -74 -4 0 3 7 17 16 31 l17 25 23 -22 c13 -12 21 -26 18 -30z m1309 16 l18 -25 -41 0 c-41 0 -52 14 -28 38 18 18 31 14 51 -13z m19 -82 c23 -21 23 -55 0 -77 -17 -15 -78 -16 -712 -14 l-694 3 -15 26 c-13 24 -13 29 2 53 l17 26 692 0 c629 0 693 -1 710 -17z"/> <path d="M1242 1818 c-20 -20 -15 -102 8 -123 18 -17 21 -17 45 -1 44 29 30 136 -18 136 -13 0 -28 -5 -35 -12z"/> <path d="M1920 1804 c-28 -72 9 -141 61 -114 15 9 19 22 19 63 0 58 -12 77 -47 77 -16 0 -27 -8 -33 -26z"/> <path d="M1508 1769 c-46 -26 5 -101 78 -115 98 -18 207 77 133 117 -18 9 -27 7 -50 -10 -36 -26 -74 -27 -106 -1 -29 23 -32 23 -55 9z"/> <path d="M560 575 c0 -18 19 -40 26 -32 4 4 0 15 -9 24 -9 10 -17 13 -17 8z"/> </g> </svg> 